<?xml version="1.0" ?><svg width="64" height="64" viewBox="0 0 32 32" xmlns="http://www.w3.org/2000/svg"><title/><g data-name="Layer 51" id="Layer_51">
<path d="M6.22,30H25.78a4.39,4.39,0,0,0,3.33-1.43,4.19,4.19,0,0,0,.6-4.67L19.82,4.12a4.31,4.31,0,0,0-2.57-2.26,4.24,4.24,0,0,0-5,2.15L2.29,23.9a4.19,4.19,0,0,0,.6,4.67A4.39,4.39,0,0,0,6.22,30ZM4.08,24.8,14,5a2.62,2.62,0,0,1,1.82-1.32A2.19,2.19,0,0,1,18,4.91l9.9,19.8a2.32,2.32,0,0,1,.21,1.65A2.22,2.22,0,0,1,26,28H6.14a2.27,2.27,0,0,1-1.56-.56A2.2,2.2,0,0,1,4.08,24.8Z" stroke="#DD3714"/>
<path d="M16,23.9a1,1,0,0,0,1-1V7.9a1,1,0,1,0-2,0v15A1,1,0,0,0,16,23.9Z" stroke="#DD3714"/>
<path d="M16,27.1a1,1,0,0,0,1-1v-.16a1,1,0,1,0-2,0v.16A1,1,0,0,0,16,27.1Z" stroke="#DD3714"/></g></svg>